<svg width="109" height="29" viewBox="0 0 109 29" fill="none" xmlns="http://www.w3.org/2000/svg">
<path fill-rule="evenodd" clip-rule="evenodd" d="M107.697 23.2V28H99.2968C98.3901 28 97.6501 27.7067 97.0768 27.12C96.5034 26.5333 96.2168 25.7867 96.2168 24.88V12.96H90.3368V8.16H96.2168V0H101.257V8.16H108.417V12.96H101.257V22C101.257 22.8 101.617 23.2 102.337 23.2H107.697ZM9.71961 28.56C12.3329 28.56 14.3596 27.9733 15.7996 26.8C17.2396 25.6267 17.9596 24.0533 17.9596 22.08V21.84C17.9596 20.0533 17.3196 18.66 16.0396 17.66C14.7596 16.66 13.1063 16.0533 11.0796 15.84C9.31961 15.6533 8.10628 15.42 7.43961 15.14C6.77294 14.86 6.43961 14.4 6.43961 13.76C6.43961 13.3067 6.65294 12.9267 7.07961 12.62C7.50628 12.3133 8.14628 12.16 8.99961 12.16C9.93294 12.16 10.6929 12.3667 11.2796 12.78C11.8663 13.1933 12.2796 13.76 12.5196 14.48L17.0796 12.64C16.8663 12.08 16.5596 11.5 16.1596 10.9C15.7596 10.3 15.2396 9.75333 14.5996 9.26C13.9596 8.76667 13.1796 8.36667 12.2596 8.06C11.3396 7.75333 10.2529 7.6 8.99961 7.6C8.03961 7.6 7.10628 7.73333 6.19961 8C5.29294 8.26667 4.49294 8.66 3.79961 9.18C3.10628 9.7 2.54628 10.3333 2.11961 11.08C1.69294 11.8267 1.47961 12.6933 1.47961 13.68V13.92C1.47961 15.8133 2.13961 17.2467 3.45961 18.22C4.77961 19.1933 6.55961 19.7733 8.79961 19.96C9.62628 20.04 10.3129 20.1467 10.8596 20.28C11.4063 20.4133 11.8396 20.58 12.1596 20.78C12.4796 20.98 12.6996 21.1933 12.8196 21.42C12.9396 21.6467 12.9996 21.8933 12.9996 22.16C12.9996 22.6133 12.7663 23.0333 12.2996 23.42C11.8329 23.8067 10.9729 24 9.71961 24C8.30628 24 7.25961 23.68 6.57961 23.04C5.89961 22.4 5.45294 21.6533 5.23961 20.8L0.599609 22.32C0.732943 23.0133 0.992943 23.7267 1.37961 24.46C1.76628 25.1933 2.31961 25.86 3.03961 26.46C3.75961 27.06 4.66628 27.56 5.75961 27.96C6.85294 28.36 8.17294 28.56 9.71961 28.56ZM32.1739 28.56C35.0006 28.56 37.2606 27.84 38.9539 26.4C40.6472 24.96 41.7206 23.0667 42.1739 20.72L37.2139 19.48C36.9739 20.7867 36.4472 21.8267 35.6339 22.6C34.8206 23.3733 33.6406 23.76 32.0939 23.76C31.3739 23.76 30.6939 23.6467 30.0539 23.42C29.4139 23.1933 28.8539 22.8533 28.3739 22.4C27.8939 21.9467 27.5139 21.38 27.2339 20.7C26.9539 20.02 26.8139 19.24 26.8139 18.36V18.12C26.8139 17.24 26.9539 16.4467 27.2339 15.74C27.5139 15.0333 27.8939 14.4333 28.3739 13.94C28.8539 13.4467 29.4139 13.0667 30.0539 12.8C30.6939 12.5333 31.3739 12.4 32.0939 12.4C33.6406 12.4 34.8406 12.8267 35.6939 13.68C36.5472 14.5333 37.0539 15.5467 37.2139 16.72L42.1739 15.44C41.7206 13.0933 40.6339 11.2 38.9139 9.76C37.1939 8.32 34.9472 7.6 32.1739 7.6C30.7339 7.6 29.3806 7.84 28.1139 8.32C26.8472 8.8 25.7406 9.49333 24.7939 10.4C23.8472 11.3067 23.1072 12.4 22.5739 13.68C22.0406 14.96 21.7739 16.4 21.7739 18V18.48C21.7739 20.08 22.0406 21.5067 22.5739 22.76C23.1072 24.0133 23.8406 25.0667 24.7739 25.92C25.7072 26.7733 26.8072 27.4267 28.0739 27.88C29.3406 28.3333 30.7072 28.56 32.1739 28.56ZM58.5282 27.88C57.2882 28.3333 55.9882 28.56 54.6282 28.56C53.2682 28.56 51.9682 28.3333 50.7282 27.88C49.4882 27.4267 48.3882 26.7667 47.4282 25.9C46.4682 25.0333 45.7082 23.9667 45.1482 22.7C44.5882 21.4333 44.3082 19.9733 44.3082 18.32V17.84C44.3082 16.2133 44.5882 14.7667 45.1482 13.5C45.7082 12.2333 46.4682 11.16 47.4282 10.28C48.3882 9.4 49.4882 8.73333 50.7282 8.28C51.9682 7.82667 53.2682 7.6 54.6282 7.6C55.9882 7.6 57.2882 7.82667 58.5282 8.28C59.7682 8.73333 60.8682 9.4 61.8282 10.28C62.7882 11.16 63.5482 12.2333 64.1082 13.5C64.6682 14.7667 64.9482 16.2133 64.9482 17.84V18.32C64.9482 19.9733 64.6682 21.4333 64.1082 22.7C63.5482 23.9667 62.7882 25.0333 61.8282 25.9C60.8682 26.7667 59.7682 27.4267 58.5282 27.88ZM54.6282 23.76C53.9082 23.76 53.2282 23.64 52.5882 23.4C51.9482 23.16 51.3882 22.8133 50.9082 22.36C50.4282 21.9067 50.0482 21.3533 49.7682 20.7C49.4882 20.0467 49.3482 19.3067 49.3482 18.48V17.68C49.3482 16.8533 49.4882 16.1133 49.7682 15.46C50.0482 14.8067 50.4282 14.2533 50.9082 13.8C51.3882 13.3467 51.9482 13 52.5882 12.76C53.2282 12.52 53.9082 12.4 54.6282 12.4C55.3482 12.4 56.0282 12.52 56.6682 12.76C57.3082 13 57.8682 13.3467 58.3482 13.8C58.8282 14.2533 59.2082 14.8067 59.4882 15.46C59.7682 16.1133 59.9082 16.8533 59.9082 17.68V18.48C59.9082 19.3067 59.7682 20.0467 59.4882 20.7C59.2082 21.3533 58.8282 21.9067 58.3482 22.36C57.8682 22.8133 57.3082 23.16 56.6682 23.4C56.0282 23.64 55.3482 23.76 54.6282 23.76ZM81.2225 27.88C79.9825 28.3333 78.6825 28.56 77.3225 28.56C75.9625 28.56 74.6625 28.3333 73.4225 27.88C72.1825 27.4267 71.0825 26.7667 70.1225 25.9C69.1625 25.0333 68.4025 23.9667 67.8425 22.7C67.2825 21.4333 67.0025 19.9733 67.0025 18.32V17.84C67.0025 16.2133 67.2825 14.7667 67.8425 13.5C68.4025 12.2333 69.1625 11.16 70.1225 10.28C71.0825 9.4 72.1825 8.73333 73.4225 8.28C74.6625 7.82667 75.9625 7.6 77.3225 7.6C78.6825 7.6 79.9825 7.82667 81.2225 8.28C82.4625 8.73333 83.5625 9.4 84.5225 10.28C85.4825 11.16 86.2425 12.2333 86.8025 13.5C87.3625 14.7667 87.6425 16.2133 87.6425 17.84V18.32C87.6425 19.9733 87.3625 21.4333 86.8025 22.7C86.2425 23.9667 85.4825 25.0333 84.5225 25.9C83.5625 26.7667 82.4625 27.4267 81.2225 27.88ZM77.3225 23.76C76.6025 23.76 75.9225 23.64 75.2825 23.4C74.6425 23.16 74.0825 22.8133 73.6025 22.36C73.1225 21.9067 72.7425 21.3533 72.4625 20.7C72.1825 20.0467 72.0425 19.3067 72.0425 18.48V17.68C72.0425 16.8533 72.1825 16.1133 72.4625 15.46C72.7425 14.8067 73.1225 14.2533 73.6025 13.8C74.0825 13.3467 74.6425 13 75.2825 12.76C75.9225 12.52 76.6025 12.4 77.3225 12.4C78.0425 12.4 78.7225 12.52 79.3625 12.76C80.0025 13 80.5625 13.3467 81.0425 13.8C81.5225 14.2533 81.9025 14.8067 82.1825 15.46C82.4625 16.1133 82.6025 16.8533 82.6025 17.68V18.48C82.6025 19.3067 82.4625 20.0467 82.1825 20.7C81.9025 21.3533 81.5225 21.9067 81.0425 22.36C80.5625 22.8133 80.0025 23.16 79.3625 23.4C78.7225 23.64 78.0425 23.76 77.3225 23.76Z" fill="white"/>
</svg>
